<?xml version="1.0" encoding="UTF-8" standalone="no"?>
<svg
   width="629.87695"
   height="648.15918"
   viewBox="0 0 629.87696 648.15919"
   version="1.1"
   xml:space="preserve"
   style="clip-rule:evenodd;fill-rule:evenodd;stroke-linejoin:round;stroke-miterlimit:2"
   id="svg12"
   sodipodi:docname="icon.svg"
   inkscape:version="1.4 (e7c3feb1, 2024-10-09)"
   xmlns:inkscape="http://www.inkscape.org/namespaces/inkscape"
   xmlns:sodipodi="http://sodipodi.sourceforge.net/DTD/sodipodi-0.dtd"
   xmlns="http://www.w3.org/2000/svg"
   xmlns:svg="http://www.w3.org/2000/svg"><defs
   id="defs12" /><sodipodi:namedview
   id="namedview12"
   pagecolor="#ffffff"
   bordercolor="#000000"
   borderopacity="0.25"
   inkscape:showpageshadow="2"
   inkscape:pageopacity="0.0"
   inkscape:pagecheckerboard="0"
   inkscape:deskcolor="#d1d1d1"
   inkscape:zoom="1.2003225"
   inkscape:cx="310.33326"
   inkscape:cy="315.74848"
   inkscape:window-width="1680"
   inkscape:window-height="997"
   inkscape:window-x="0"
   inkscape:window-y="25"
   inkscape:window-maximized="1"
   inkscape:current-layer="背景" />
    <g
   id="背景"
   transform="matrix(2.75,0,0,2.75,-1093.5199,-197.61712)">
        
        <path
   d="m 398.056,254.517 c -0.225,-4.956 -0.506,-11.174 -0.382,-62.018 0.18,-74.089 -1.296,-86.867 10.092,-100.783 13.689,-16.731 27.207,-19.797 52.735,-19.811 115.664,-0.061 122.5,-0.388 130.103,2.322 33.272,11.861 36.039,33.841 35.875,66.273 -0.304,60.325 1.598,117.731 -2.218,129.929 -11.775,37.637 -42.794,37.117 -64.76,37.022 -83.376,-0.361 -114.806,1.622 -127.9,-3.252 -34.263,-12.754 -33.135,-43.305 -33.545,-49.682 z"
   style="fill:#258ad5;fill-opacity:1"
   id="path2" />
        <path
   d="m 589.401,232.035 c -3.676,3.593 -6.339,10.594 -23.221,22.025 -14.465,9.794 -40.706,15.827 -42.699,10.448 -2.445,-6.6 6.553,-1.493 28.845,-10.423 22.295,-8.93 61.275,-45.963 42.69,-95.378 -5.506,-14.64 -6.607,-15.12 -7.507,-14.203 -0.109,0.111 5.242,16.815 4.819,28.987 -0.204,5.896 -5.091,4.701 -6.003,3.142 -1.281,-2.19 0.742,-35.089 -20.244,-56.695 -10.108,-10.406 -28.41,-17.432 -28.571,-17.401 -6.84,1.307 10.25,1.53 27.662,28.182 14.837,22.71 19.303,58.107 -0.249,84.116 -22.805,30.334 -52.181,25.951 -55.036,26.975 -0.109,0.218 -0.219,0.437 -0.329,0.656 3.684,2.268 19.344,2.815 26.889,0.841 33.469,-8.756 43.333,-37.438 44.408,-39.604 2.092,-4.214 8.252,-2.79 5.868,2.888 -12.491,29.751 -35.184,38.839 -44.226,41.899 -22.461,7.6 -49.769,-1.542 -59.514,-17.281 -1.971,-3.183 -3.179,-5.134 -2.73,-46.714 0.095,-8.826 6.127,-6.889 7.372,-6.174 2.544,1.461 16.08,20.694 17.391,22.557 9.915,14.088 10.61,0.439 10.353,-0.35 -1.591,-4.889 -31.68,-43.405 -32.075,-43.653 -1.627,-1.022 -17.074,11.317 -16.123,39.636 1.695,50.447 35.29,54.51 34.951,60.985 -0.562,10.729 -32.532,-11.69 -39.15,-41.104 -6.623,-29.44 0.982,-42.669 2.203,-45.953 0.712,-1.914 -1.686,-2.26 -2.935,0.906 -5.364,13.598 -14.122,26.512 -5.18,56.288 0.981,3.269 6.655,22.162 23.739,35.458 27.324,21.266 41.733,10.911 39.946,20.443 -1.403,7.481 -31.886,1.352 -43.006,-3.516 -58.29,-25.523 -70.84,-86.625 -53.929,-126.374 11.85,-27.853 18.724,-25.199 21.582,-36.18 1.755,-6.742 12.575,-6.975 12.859,1.053 0.233,6.586 -7.41,7.073 -7.708,7.144 -3.004,0.717 -17.753,19.993 -16.539,21.274 0.386,0.407 1.072,0.834 5.148,-4.761 16.074,-22.064 46.255,-29.075 57.356,-28.931 7.552,0.097 5.574,6.017 1.029,6.498 -61.268,6.488 -75.242,56.872 -72.593,83.72 1.379,13.979 11.412,36.638 13.402,34.888 2.46,-2.165 -4.829,-2.232 -5.611,-29.85 -0.32,-11.276 4.915,-7.147 5.381,-6.647 1.8,1.928 -2.193,34.701 23.433,60.597 5.968,6.031 25.597,15.201 26.797,14.654 1.978,-0.903 -3.015,-3.065 -4.989,-4.359 -44.292,-29.028 -44.894,-86.345 -19.912,-113.289 23.841,-25.714 46.032,-20.411 47.528,-22.955 1.356,-2.306 -27.848,-4.045 -45.382,10.123 -24.512,19.807 -18.434,33.082 -26.027,30.698 -4.32,-1.355 0.337,-9.468 0.392,-9.585 19.26,-40.749 67.04,-47.695 92.211,-29.798 16.974,12.068 9.51,16.947 -2.516,33.679 -6.831,9.505 -8.925,14.063 -12.225,13.231 -6.686,-1.685 1.319,-9.256 15.718,-29.618 3.686,-5.214 0.389,-5.656 -5.524,-8.025 -21.264,-8.522 -38.033,2.397 -38.53,3.044 -1.801,2.343 16.502,23.483 23.974,34.566 0.76,1.126 18.55,20.075 3.252,28.324 -13.595,7.331 -25.311,-25.474 -29.373,-23.36 -0.307,0.159 0.249,29.196 0.298,31.734 0.182,9.514 23.552,20.157 45.116,8.718 6.453,-3.423 4.54,-5.833 4.577,-18.732 0.089,-30.334 -0.914,-37.304 5.656,-33.101 3.11,1.99 0.148,40.541 1.719,41.344 1.383,0.707 1.34,-0.204 3.035,-2.364 13.888,-17.705 10.972,-47.547 4.641,-62.106 -12.627,-29.04 -29.391,-27.312 -28.843,-33.801 0.898,-10.628 31.465,13.342 37.934,39.12 7.959,31.721 -2.352,49.631 -2.445,49.903 -0.139,0.403 0.652,2.083 1.987,0.179 19.369,-27.625 14.766,-86.987 -40.11,-107.193 -5.364,-1.975 -20.352,-1.457 -14.994,-9.971 2.76,-4.386 30.672,-1.878 52.739,11.388 4.204,2.528 28.556,17.169 40.75,45.809 26.381,61.967 -16.423,104.776 -18.234,107.005 -1.352,1.666 -0.196,4.328 -2.433,6.628 -7.844,8.065 -19.004,-8.352 -3.868,-11.025 3.132,-0.552 14.309,-15.898 16.411,-20.903 -0.065,-0.319 0.504,-0.554 0.439,-0.873 -0.032,-0.156 -0.305,-1.499 -1.917,0.497 z"
   style="fill:#f2fcfa"
   id="path3" />
        <path
   d="m 435.561,195.148 c -0.568,-0.213 -4.853,-1.821 -5.058,-5.648 -0.184,-3.438 1.987,-5.233 2.358,-5.54 8.015,-6.629 16.384,11.425 2.7,11.188 z"
   style="fill:#f2fdfd"
   id="path4" />
        <path
   d="m 516.703,266.722 c -9.754,7.16 -14.908,-10.205 -4.206,-10.819 2.561,-0.147 10.319,3.65 4.206,10.819 z"
   style="fill:#effbf7"
   id="path5" />
        <path
   d="m 509.646,122.255 c -1.69517,-1.61575 -3.45507,-3.72376 -3.23074,-6.2176 0.56581,-4.0339 5.70721,-6.73999 9.27949,-4.642 3.02706,1.99638 3.93259,6.58646 1.95657,9.61074 -1.19995,1.76515 -3.51453,2.32731 -5.52356,1.93434 -0.84962,-0.13528 -1.67743,-0.38366 -2.48176,-0.68548 z"
   style="fill:#f5fdfa"
   id="path6" />
        <path
   d="m 591.592,194.612 c -12.121,6.53 -12.854,-12.074 -3.097,-11.041 2.511,0.266 9.147,4.68 3.097,11.041 z"
   style="fill:#f1fcfb"
   id="path7" />
        <path
   d="m 538.834,280.507 c -3.181,13.945 -18.111,1.243 -10.066,-4.684 2.548,-1.877 8.396,-3.578 10.066,4.684 z"
   style="fill:#f1fcf6"
   id="path8" />
        <path
   d="m 554.415,276.625 c -2.33,-2.102 -2.83,-1.998 -2.707,-5.106 0.036,-0.9 0.695,-4.295 3.944,-5.653 10.031,-4.192 11.012,16.694 -1.237,10.759 z"
   style="fill:#f0fbf9"
   id="path9" />
        <path
   d="m 462.146,107.503 c -0.12883,-3.76614 4.12948,-6.97269 7.69399,-5.58518 3.00622,1.07496 4.84505,4.96353 3.24551,7.85643 -1.43822,2.77216 -5.10224,4.46222 -8.03796,3.07232 -1.94842,-1.00554 -2.71526,-3.29635 -2.90154,-5.34357 z"
   style="fill:#f5fdfc"
   id="path10" />
        <path
   d="m 498.78,98.516 c -0.43642,1.97804 -1.31814,4.03579 -3.07846,5.17621 -1.66695,1.09342 -3.91003,0.79453 -5.52107,-0.25379 -1.9467,-1.22373 -3.31979,-3.551957 -2.96796,-5.889363 0.36849,-2.058779 1.98552,-3.795877 3.9404,-4.478863 2.01204,-0.725131 4.39229,-0.01231 5.77065,1.598324 0.9829,1.072403 1.4837,2.466826 1.85644,3.847482 z"
   style="fill:#eefdfc"
   id="path11" />
        <path
   d="m 589.401,232.035 c 1.612,-1.996 1.885,-0.653 1.917,-0.497 0.065,0.319 -0.504,0.554 -0.439,0.873 z"
   style="fill:#cbd3d2"
   id="path12" />
    </g>
</svg>
